<?xml version="1.0" encoding="UTF-8"?>
<svg id="katman_1" data-name="katman 1" xmlns="http://www.w3.org/2000/svg" viewBox="0 0 420 484.501">
  <path fill="#fff" d="m323.249,358.055c-16.63-.765-33.925-3.891-47.893-13.437l-.003-.002c-.003.006-.004.012-.006.018-1.896,3.792-4.623,6.752-8.381,8.648-.466.266-.932.498-1.397.665-.399.2-.832.366-1.264.499-.1.067-.232.1-.332.133l-.007-.011c-1.792.595-3.715.927-5.738.927h-114.944c-13.403-2.128-4.356-21.02,15.333-20.188l22.649,1.53.765-.1c-19.224-10.577-32.028-28.37-32.028-49.79,0-6.745,1.262-13.257,3.652-19.306,0,0-.002,0-.003-.001-.2-.067-.367-.133-.566-.233-1.962-.731-3.891-1.497-5.821-2.328l-.55,5.951-.539,5.906c-4.157,8.614-7.383,41.907-8.58,55.909.599,9.811.232,22.052-17.561,22.783l-9.246-.233c-6.12-.399-9.28-2.095-10.577-4.324-1.928-3.293.367-7.783,3.526-10.942,3.888-3.888,8.871-5.619,11.997-8.674.233-15.071.665-50.746-.432-57.097l-7.251-29.534-.898-3.691c-2.96-2.395-5.853-4.923-8.647-7.583l-46.563-5.988c-1.829,5.688-3.792,11.508-5.554,16.763-1.73,7.683,2.295,12.272,1.264,16.23-5.055,19.124-24.545,28.47-26.574,13.736-.266-1.996-.232-4.423.2-7.317l4.856-22.35.998-5.986c.565-3.293,4.091-14.768,6.352-23.881,1.63-6.651,7.317-11.54,14.135-12.172,3.891-.333,7.749-.532,11.442-.333h.1l13.071-.731c-.566-.832-1.065-1.63-1.564-2.461l-.466-.798c-2.794-4.723-5.022-9.678-6.585-14.834-2.794-9.013-3.692-18.559-2.561-27.971.365-3.26.997-6.485,1.895-9.678.002-.009.006-.018.007-.028-.631-2.891-1.228-6.212-1.66-9.998-.399-3.359-.632-7.051-.632-11.076.2-16.031,11.341-28.204,5.588-33.958-4.324-6.718-9.545-4.29-22.25-1.33-2.229.498-4.524.832-6.852.832-.898,0-1.796-.034-2.728-.167-.598-.066-1.197-.133-1.796-.265-4.59.365-9.046-.799-12.738-3.16-2.461-1.53-4.59-3.592-6.219-6.086-.266-.433-.532-.832-.799-1.298-.366-.665-.698-1.33-.997-2.029l-7.317-11.441-4.057-6.286c-1.264-3.06-.067-6.519,2.794-8.082l7.284-4.024,16.662-9.213.2-.1,2.328-1.33c4.423-2.428,10.543-8.082,11.874-12.905l1.33-4.423c.299-1.397.731-2.694,1.363-3.925,9.911-20.155,60.299-19.889,72.738-3.526.632.832,1.43,2.229,2.361,4.124.033.033.033.067.067.1,6.419,13.004,19.158,48.06,27.805,70.077l4.856,11.973.033.066,18.159,24.579c7.251,5.222,13.471,9.778,19.025,14.235,6.585,5.256,12.273,10.411,17.827,16.364,5.854,6.32,11.54,13.537,17.861,22.75l24.944,35.986c15.299,22.317,18.026,30.764,22.617,50.721,0,.033.033.1.033.133,1.696,4.789,2.861,9.911,3.426,15.232.1.632.166,1.264.199,1.895.1,0,.2-.033.3-.033.1,6.352,4.856,27.838,7.317,33.824,3.193,7.816,9.346,13.702,16.563,17.861,10.443,5.986,18.492,4.722,30.133,7.249,2.454.534,4.956.948,7.475,1.322,3.574.061,7.579.391,11.452,1.31.006.001.013.001.02.002,5.168.45,10.403.793,15.675,1.192,18.559,1.397,37.55,3.758,54.778,15.632-2.96.166-5.92.299-8.847.432-29.335,1.264-58.536.399-87.905-.931Z"/>
</svg>